<?xml version="1.0" standalone="no"?>
<!DOCTYPE svg PUBLIC "-//W3C//DTD SVG 20010904//EN"
 "http://www.w3.org/TR/2001/REC-SVG-20010904/DTD/svg10.dtd">
<svg version="1.0" xmlns="http://www.w3.org/2000/svg"
 width="1080.000000pt" height="1080.000000pt" viewBox="0 0 1080.000000 1080.000000"
 preserveAspectRatio="xMidYMid meet">

<g transform="translate(0.000000,1080.000000) scale(0.100000,-0.100000)"
fill="#000000" stroke="none">
<path d="M0 5400 l0 -5400 5400 0 5400 0 0 5400 0 5400 -5400 0 -5400 0 0
-5400z m3421 902 c3 -4 23 -45 44 -92 21 -47 69 -149 107 -228 37 -79 68 -145
68 -148 0 -2 37 -79 82 -171 45 -93 82 -170 82 -173 1 -3 15 -32 30 -65 16
-33 30 -62 31 -65 6 -17 29 -69 75 -165 154 -325 180 -382 180 -400 0 -14 -20
-15 -156 -13 l-157 3 -74 160 c-41 88 -101 215 -134 283 -32 68 -59 126 -59
129 0 5 -91 199 -111 236 -23 44 -29 55 -47 97 -29 67 -70 154 -171 368 -50
106 -91 199 -91 208 0 9 -6 14 -13 11 -10 -4 -13 1 -10 16 4 22 7 22 161 19
86 -2 160 -6 163 -10z m-345 -97 c24 -52 44 -101 44 -109 0 -9 4 -16 9 -16 5
0 14 -15 22 -32 7 -18 34 -78 59 -133 26 -55 60 -129 76 -165 15 -36 32 -66
36 -68 4 -2 8 -8 8 -13 0 -10 20 -55 97 -217 29 -63 65 -141 79 -175 14 -34
41 -92 60 -128 19 -37 34 -72 34 -78 0 -6 10 -28 23 -49 32 -53 111 -232 104
-238 -2 -3 -54 19 -114 50 -147 73 -204 92 -378 126 -115 23 -313 27 -409 9
-186 -36 -217 -46 -413 -140 -57 -27 -105 -49 -108 -49 -14 0 -5 22 124 294
34 70 61 130 61 133 0 2 27 60 60 129 33 70 57 130 54 135 -3 5 -1 9 4 9 5 0
41 69 80 153 39 83 93 199 120 257 27 58 60 128 72 155 12 28 40 87 61 133 22
45 39 85 39 89 0 14 33 42 42 37 6 -4 30 -48 54 -99z m3915 -82 c1 -49 2 -92
4 -98 1 -5 3 -31 3 -57 l2 -48 40 0 40 0 0 -40 0 -40 -40 0 -40 0 0 -80 0 -80
40 0 40 0 0 -40 0 -40 -45 0 -45 0 0 -375 0 -375 -770 0 -769 0 -5 433 c-3
237 -5 452 -5 477 -1 25 2 136 5 248 l5 202 770 0 769 0 1 -87z m-1744 -109
c7 -7 13 -24 13 -39 0 -17 4 -24 12 -19 7 4 8 3 4 -4 -4 -6 -2 -19 3 -29 5
-10 24 -56 42 -103 18 -47 40 -103 50 -125 10 -23 21 -53 24 -68 7 -27 7 -27
-49 -27 -37 0 -58 4 -60 13 -2 6 -9 30 -15 52 l-10 40 -82 -1 -83 -1 -19 -52
-20 -51 -53 0 c-51 0 -64 7 -46 24 4 4 7 11 8 14 0 4 6 21 13 37 7 17 14 35
15 40 1 6 5 16 10 23 4 7 6 16 3 19 -3 3 3 14 14 26 10 11 19 27 19 34 0 31
72 190 95 208 17 14 95 6 112 -11z m1976 -102 c3 -4 7 -75 9 -157 l3 -150 -44
-3 c-24 -2 -48 1 -53 6 -10 10 -12 288 -2 304 6 10 81 11 87 0z m320 -4 c12
-7 25 -17 28 -22 4 -5 12 -5 18 -2 23 15 9 -18 -21 -50 l-32 -32 -28 19 c-23
17 -33 18 -67 9 -43 -11 -51 -24 -51 -77 0 -64 83 -99 125 -53 19 21 19 20 47
-10 15 -17 28 -34 28 -37 0 -10 -43 -43 -57 -43 -7 0 -13 -4 -13 -10 0 -15
-93 -12 -131 4 -19 8 -43 24 -53 35 -10 11 -23 18 -29 14 -6 -3 -7 -1 -3 6 4
6 3 17 -2 24 -19 23 -18 129 2 149 7 8 17 24 20 36 4 13 22 29 39 36 40 18
150 20 180 4z m323 -7 c27 -11 42 -20 34 -21 -13 0 -13 -1 0 -10 13 -8 13 -10
-1 -10 -9 0 -23 -10 -31 -22 -14 -21 -14 -21 -61 -3 -40 15 -52 16 -75 6 l-27
-13 25 -13 c14 -7 49 -16 78 -20 43 -6 57 -13 77 -39 63 -83 -7 -168 -133
-161 -120 6 -152 28 -118 80 17 26 45 32 63 14 9 -9 55 -14 101 -10 6 1 12 8
12 16 0 11 -11 15 -40 15 -22 0 -48 4 -58 9 -9 5 -29 14 -43 21 -52 24 -64 91
-24 138 16 20 21 32 13 34 -6 2 27 5 74 7 66 1 96 -3 134 -18z m14 -718 c45
-104 88 -201 96 -217 17 -36 11 -46 -29 -46 -57 0 -76 10 -87 46 -11 33 -17
36 -60 36 -74 0 -78 -1 -97 -39 -16 -33 -23 -38 -57 -41 -21 -2 -43 1 -48 6
-5 5 18 71 57 160 36 84 63 157 59 164 -4 6 -3 8 3 5 6 -4 21 20 34 53 13 33
29 60 35 60 6 0 48 -84 94 -187z m-2575 -43 l0 -215 -45 0 -45 0 -3 205 c-1
112 0 210 3 218 3 9 19 12 47 10 l43 -3 0 -215z m1955 205 c1 -8 1 -106 1
-217 l0 -203 -48 0 -48 0 -3 205 c-1 112 0 210 2 217 8 19 96 17 96 -2z"/>
<path d="M2986 5554 c-28 -69 -95 -215 -122 -266 -8 -14 -14 -28 -14 -30 0 -2
182 -1 317 2 6 0 -18 64 -54 143 -36 78 -73 160 -82 181 l-17 40 -28 -70z"/>
<path d="M5867 5889 c-21 -11 -35 -24 -32 -28 2 -5 -3 -11 -14 -14 -24 -6 -41
-76 -31 -123 14 -62 82 -114 149 -114 44 0 109 29 116 51 4 10 10 19 14 19 13
0 31 76 25 107 -10 51 -89 124 -116 107 -7 -4 -8 -3 -4 4 12 20 -65 13 -107
-9z m133 -54 c12 -13 27 -23 33 -22 5 1 12 -4 15 -12 2 -8 0 -11 -6 -8 -6 4
-10 -9 -10 -33 -1 -55 -36 -99 -79 -99 -67 -2 -103 35 -103 102 0 81 97 128
150 72z"/>
<path d="M6185 5814 c-8 -98 -3 -123 28 -166 15 -20 32 -28 68 -33 49 -7 82 1
60 14 -6 4 5 7 24 8 21 1 33 -3 32 -10 -1 -7 11 -12 28 -12 l30 0 2 143 2 142
-30 0 -29 0 0 -98 c0 -82 -3 -101 -17 -113 -37 -29 -58 -36 -82 -27 -43 15
-50 37 -51 139 l0 97 -29 4 -29 4 -7 -92z"/>
<path d="M6603 5896 c-40 -18 -58 -53 -49 -99 7 -36 25 -46 126 -64 47 -8 61
-31 40 -63 -10 -17 -120 -22 -117 -6 3 17 -36 19 -45 2 -9 -15 -11 -28 -5 -23
2 1 12 -4 21 -12 20 -17 86 -25 133 -16 36 6 93 58 93 83 0 9 -10 29 -23 45
-17 21 -35 30 -79 37 -93 15 -120 40 -83 77 12 11 27 14 60 8 25 -3 45 -10 45
-16 0 -16 35 -9 47 10 10 16 8 20 -15 30 -43 20 -114 23 -149 7z"/>
<path d="M5700 5141 l0 -201 30 0 30 0 0 120 c0 89 3 120 13 120 6 0 63 -46
126 -103 62 -56 124 -110 137 -120 l24 -19 -2 199 -3 198 -33 3 -34 3 4 -119
c1 -66 0 -124 -5 -128 -4 -4 -22 6 -40 23 -99 93 -176 164 -209 193 l-38 32 0
-201z"/>
<path d="M6468 5334 c-5 -4 -8 -94 -8 -201 l0 -193 70 0 c108 0 165 16 209 58
51 50 68 107 54 177 -24 112 -78 151 -223 161 -52 3 -98 3 -102 -2z m186 -68
c51 -21 76 -64 76 -131 0 -53 -3 -60 -34 -90 -19 -18 -49 -35 -66 -39 -48 -9
-98 -7 -102 4 -1 5 -2 68 0 140 l3 130 45 0 c24 0 60 -6 78 -14z"/>
</g>
</svg>
